<svg xmlns="http://www.w3.org/2000/svg" width="1440" height="900" viewBox="0 0 1440 900">
  <defs>
    <linearGradient id="gradient1" x1="0%" y1="0%" x2="100%" y2="100%">
      <stop offset="0%" style="stop-color:#3a86ff;stop-opacity:0.8" />
      <stop offset="100%" style="stop-color:#8338ec;stop-opacity:0.8" />
    </linearGradient>
  </defs>
  
  <!-- Neural Network Nodes and Connections -->
  <!-- Layer 1 -->
  <circle cx="300" cy="150" r="8" fill="url(#gradient1)" />
  <circle cx="300" cy="300" r="8" fill="url(#gradient1)" />
  <circle cx="300" cy="450" r="8" fill="url(#gradient1)" />
  <circle cx="300" cy="600" r="8" fill="url(#gradient1)" />
  <circle cx="300" cy="750" r="8" fill="url(#gradient1)" />
  
  <!-- Layer 2 -->
  <circle cx="600" cy="200" r="8" fill="url(#gradient1)" />
  <circle cx="600" cy="350" r="8" fill="url(#gradient1)" />
  <circle cx="600" cy="500" r="8" fill="url(#gradient1)" />
  <circle cx="600" cy="650" r="8" fill="url(#gradient1)" />
  
  <!-- Layer 3 -->
  <circle cx="900" cy="250" r="8" fill="url(#gradient1)" />
  <circle cx="900" cy="450" r="8" fill="url(#gradient1)" />
  <circle cx="900" cy="650" r="8" fill="url(#gradient1)" />
  
  <!-- Layer 4 -->
  <circle cx="1200" cy="350" r="8" fill="url(#gradient1)" />
  <circle cx="1200" cy="550" r="8" fill="url(#gradient1)" />
  
  <!-- Connections Layer 1 to Layer 2 -->
  <line x1="300" y1="150" x2="600" y2="200" stroke="#3a86ff" stroke-width="1" stroke-opacity="0.4" />
  <line x1="300" y1="150" x2="600" y2="350" stroke="#3a86ff" stroke-width="1" stroke-opacity="0.4" />
  <line x1="300" y1="150" x2="600" y2="500" stroke="#3a86ff" stroke-width="1" stroke-opacity="0.4" />
  <line x1="300" y1="150" x2="600" y2="650" stroke="#3a86ff" stroke-width="1" stroke-opacity="0.4" />
  
  <line x1="300" y1="300" x2="600" y2="200" stroke="#3a86ff" stroke-width="1" stroke-opacity="0.4" />
  <line x1="300" y1="300" x2="600" y2="350" stroke="#3a86ff" stroke-width="1" stroke-opacity="0.4" />
  <line x1="300" y1="300" x2="600" y2="500" stroke="#3a86ff" stroke-width="1" stroke-opacity="0.4" />
  <line x1="300" y1="300" x2="600" y2="650" stroke="#3a86ff" stroke-width="1" stroke-opacity="0.4" />
  
  <line x1="300" y1="450" x2="600" y2="200" stroke="#3a86ff" stroke-width="1" stroke-opacity="0.4" />
  <line x1="300" y1="450" x2="600" y2="350" stroke="#3a86ff" stroke-width="1" stroke-opacity="0.4" />
  <line x1="300" y1="450" x2="600" y2="500" stroke="#3a86ff" stroke-width="1" stroke-opacity="0.4" />
  <line x1="300" y1="450" x2="600" y2="650" stroke="#3a86ff" stroke-width="1" stroke-opacity="0.4" />
  
  <line x1="300" y1="600" x2="600" y2="200" stroke="#3a86ff" stroke-width="1" stroke-opacity="0.4" />
  <line x1="300" y1="600" x2="600" y2="350" stroke="#3a86ff" stroke-width="1" stroke-opacity="0.4" />
  <line x1="300" y1="600" x2="600" y2="500" stroke="#3a86ff" stroke-width="1" stroke-opacity="0.4" />
  <line x1="300" y1="600" x2="600" y2="650" stroke="#3a86ff" stroke-width="1" stroke-opacity="0.4" />
  
  <line x1="300" y1="750" x2="600" y2="200" stroke="#3a86ff" stroke-width="1" stroke-opacity="0.4" />
  <line x1="300" y1="750" x2="600" y2="350" stroke="#3a86ff" stroke-width="1" stroke-opacity="0.4" />
  <line x1="300" y1="750" x2="600" y2="500" stroke="#3a86ff" stroke-width="1" stroke-opacity="0.4" />
  <line x1="300" y1="750" x2="600" y2="650" stroke="#3a86ff" stroke-width="1" stroke-opacity="0.4" />
  
  <!-- Connections Layer 2 to Layer 3 -->
  <line x1="600" y1="200" x2="900" y2="250" stroke="#3a86ff" stroke-width="1" stroke-opacity="0.4" />
  <line x1="600" y1="200" x2="900" y2="450" stroke="#3a86ff" stroke-width="1" stroke-opacity="0.4" />
  <line x1="600" y1="200" x2="900" y2="650" stroke="#3a86ff" stroke-width="1" stroke-opacity="0.4" />
  
  <line x1="600" y1="350" x2="900" y2="250" stroke="#3a86ff" stroke-width="1" stroke-opacity="0.4" />
  <line x1="600" y1="350" x2="900" y2="450" stroke="#3a86ff" stroke-width="1" stroke-opacity="0.4" />
  <line x1="600" y1="350" x2="900" y2="650" stroke="#3a86ff" stroke-width="1" stroke-opacity="0.4" />
  
  <line x1="600" y1="500" x2="900" y2="250" stroke="#3a86ff" stroke-width="1" stroke-opacity="0.4" />
  <line x1="600" y1="500" x2="900" y2="450" stroke="#3a86ff" stroke-width="1" stroke-opacity="0.4" />
  <line x1="600" y1="500" x2="900" y2="650" stroke="#3a86ff" stroke-width="1" stroke-opacity="0.4" />
  
  <line x1="600" y1="650" x2="900" y2="250" stroke="#3a86ff" stroke-width="1" stroke-opacity="0.4" />
  <line x1="600" y1="650" x2="900" y2="450" stroke="#3a86ff" stroke-width="1" stroke-opacity="0.4" />
  <line x1="600" y1="650" x2="900" y2="650" stroke="#3a86ff" stroke-width="1" stroke-opacity="0.4" />
  
  <!-- Connections Layer 3 to Layer 4 -->
  <line x1="900" y1="250" x2="1200" y2="350" stroke="#3a86ff" stroke-width="1" stroke-opacity="0.4" />
  <line x1="900" y1="250" x2="1200" y2="550" stroke="#3a86ff" stroke-width="1" stroke-opacity="0.4" />
  
  <line x1="900" y1="450" x2="1200" y2="350" stroke="#3a86ff" stroke-width="1" stroke-opacity="0.4" />
  <line x1="900" y1="450" x2="1200" y2="550" stroke="#3a86ff" stroke-width="1" stroke-opacity="0.4" />
  
  <line x1="900" y1="650" x2="1200" y2="350" stroke="#3a86ff" stroke-width="1" stroke-opacity="0.4" />
  <line x1="900" y1="650" x2="1200" y2="550" stroke="#3a86ff" stroke-width="1" stroke-opacity="0.4" />
  
  <!-- Additional floating nodes -->
  <circle cx="400" cy="100" r="4" fill="#3a86ff" opacity="0.6" />
  <circle cx="700" cy="200" r="4" fill="#3a86ff" opacity="0.6" />
  <circle cx="1000" cy="300" r="4" fill="#3a86ff" opacity="0.6" />
  <circle cx="1300" cy="400" r="4" fill="#3a86ff" opacity="0.6" />
  <circle cx="200" cy="500" r="4" fill="#3a86ff" opacity="0.6" />
  <circle cx="500" cy="600" r="4" fill="#3a86ff" opacity="0.6" />
  <circle cx="800" cy="700" r="4" fill="#3a86ff" opacity="0.6" />
  <circle cx="1100" cy="800" r="4" fill="#3a86ff" opacity="0.6" />
</svg>
